<?xml version="1.0" encoding="utf-8"?>
<!-- Generator: Adobe Illustrator 26.1.0, SVG Export Plug-In . SVG Version: 6.00 Build 0)  -->
<svg version="1.1"
	 id="svg2" xmlns:cc="http://creativecommons.org/ns#" xmlns:dc="http://purl.org/dc/elements/1.1/" xmlns:inkscape="http://www.inkscape.org/namespaces/inkscape" xmlns:rdf="http://www.w3.org/1999/02/22-rdf-syntax-ns#" xmlns:sodipodi="http://sodipodi.sourceforge.net/DTD/sodipodi-0.dtd" xmlns:svg="http://www.w3.org/2000/svg"
	 xmlns="http://www.w3.org/2000/svg" xmlns:xlink="http://www.w3.org/1999/xlink" x="0px" y="0px" viewBox="0 0 800 186.5"
	 style="enable-background:new 0 0 800 186.5;" xml:space="preserve">
<style type="text/css">
	.st0{fill:none;}
	.st1{fill:#333333;}
</style>
<g>
	<path class="st0" d="M727.8,159.5c-52.6,10.2-105.9,19.3-159.1,25h0c0,0,0,0,0,0h-35.1v2.1h210.1
		C738.9,177.9,735,164.6,727.8,159.5z"/>
	<path class="st0" d="M794.7,150.1h-4.4c0.9,1.3,1.4,4,1.4,6.9c0,4.2-1.1,7.7-2.5,7.7c-1.1,0-2-2.2-2.3-5.4
		c-0.2,0.1-0.4,0.2-0.5,0.2c-1.3,0-2.4-2.8-2.4-6.3c0-1.4,0.2-2.7,0.5-3.8h-0.4v1.3h-4l0,1h0v0l-12.6-0.1c-0.2,0-0.4,0.1-0.6,0.1
		v2.2l-3.3,3.1l0.1,29.5H800v-40.3C799,148.2,797,149.4,794.7,150.1z"/>
	<path class="st0" d="M533.5,0v100.7l33.4,0.2c52.4,3.4,107,10.7,155.5,23.9h2.3l-2.3,0c1.4,0.4,2.7,0.7,4.1,1.1v-0.8
		c6.4-6.8,13.7-17.1,5.8-25.8c-4,0.1-8,0.1-11.7,0.1c-5.1-1-9.5-3.6-9.7-9.6c0.8-8.1,7.7-9.6,14.9-10.5l0,0
		c19.6-1.5,51.2,4.7,59,10.2c1,0.7,1.2,0.9,0.1,1.4c-6.3,3.3-14,5.3-22.3,6.5v32.4l8.4,11.1c0.4,0.2,0.8,0.3,1.1,0.5l8,0v0.9h4.1
		v0.6h0.5c-0.4-1.2-0.7-2.7-0.7-4.4c0-3.5,1.1-6.3,2.4-6.3c0.2,0,0.5,0.1,0.7,0.3c0.4-2.7,1.3-4.3,2.2-4.3c1.4,0,2.5,3.4,2.5,7.7
		c0,2.8-0.5,5.3-1.3,6.7h4.2c2.2,0.8,4.3,2.5,5.4,3.9V0H533.5z"/>
	<path class="st1" d="M794.6,142.4h-4.2c0.8-1.4,1.3-3.9,1.3-6.7c0-4.2-1.1-7.7-2.5-7.7c-0.9,0-1.8,1.7-2.2,4.3
		c-0.2-0.2-0.5-0.3-0.7-0.3c-1.3,0-2.4,2.8-2.4,6.3c0,1.6,0.2,3.2,0.7,4.4h-0.5v-0.6H780v-0.9l-8,0c-0.4-0.2-0.8-0.3-1.1-0.5
		l-8.4-11.1V97.3c8.3-1.2,16-3.3,22.3-6.5c1.1-0.5,1-0.7-0.1-1.4c-7.8-5.5-39.4-11.6-59-10.2l0,0c-7.2,1-14.1,2.4-14.9,10.5
		c0.3,6.1,4.6,8.6,9.7,9.6c3.8,0,7.7,0,11.7-0.1c7.9,8.8,0.6,19.1-5.8,25.8v0.8c-1.4-0.4-2.7-0.8-4.1-1.1l2.3,0h-2.3
		C674,111.7,619.4,104.3,567,100.9l-33.4-0.2v83.8h35.1c0,0,0,0,0,0h0c53.2-5.7,106.6-14.9,159.1-25c7.2,5.1,11.1,18.4,15.9,27.1h20
		l-0.1-29.5l3.3-3.1v-2.2c0.2,0,0.4-0.1,0.6-0.1l12.6,0.1v0h0l0-1h4v-1.3h0.4c-0.3,1.1-0.5,2.5-0.5,3.8c0,3.5,1.1,6.3,2.4,6.3
		c0.2,0,0.4-0.1,0.5-0.2c0.3,3.2,1.3,5.4,2.3,5.4c1.4,0,2.5-3.4,2.5-7.7c0-3-0.6-5.7-1.4-6.9h4.4c2.3-0.7,4.3-2,5.3-3.9
		C798.9,144.9,796.8,143.2,794.6,142.4z"/>
</g>
</svg>
