<?xml version="1.0" encoding="utf-8"?>
<!-- Generator: Adobe Illustrator 26.1.0, SVG Export Plug-In . SVG Version: 6.00 Build 0)  -->
<svg version="1.1"
	 id="svg2" xmlns:cc="http://creativecommons.org/ns#" xmlns:dc="http://purl.org/dc/elements/1.1/" xmlns:inkscape="http://www.inkscape.org/namespaces/inkscape" xmlns:rdf="http://www.w3.org/1999/02/22-rdf-syntax-ns#" xmlns:sodipodi="http://sodipodi.sourceforge.net/DTD/sodipodi-0.dtd" xmlns:svg="http://www.w3.org/2000/svg"
	 xmlns="http://www.w3.org/2000/svg" xmlns:xlink="http://www.w3.org/1999/xlink" x="0px" y="0px" viewBox="0 0 800 186.5"
	 style="enable-background:new 0 0 800 186.5;" xml:space="preserve">
<style type="text/css">
	.st0{fill:none;}
	.st1{fill:#333333;}
</style>
<g>
	<rect x="266.8" y="184.5" class="st0" width="266.5" height="2.1"/>
	<path class="st0" d="M375,0v39.7h1v32.9h1.9l1.9-3.5h3V51.3h-1.9v-3.5h0v-3.9h2v-8.8h0.8v12.3h2.2v2.9l-0.9,0l0,0.9h-0.2v17.8h3.1
		v7.4c7.9,1.4,15.7,3.1,23.5,4.7c17.1,4.7,32.8,10.5,45,19l76.8,0.5V0H374.1v0H375z"/>
	<path class="st0" d="M276.5,98.2c3.2-3.5,6.3-8.5,7.2-13.5c1.9-6.1,6.4-10.7,12.1-12.2h2.8c0-0.1,0-0.2,0-0.4
		c0-1.2,0.5-2.1,2.6-2.1c2.1,0,4.9,0.9,4.9,2.1c0,0.1,0,0.2-0.1,0.4h3.3c0.2-0.8,0.9-1.4,2.5-1.4c1.6,0,3.6,0.6,4.4,1.4h18.1V33.5
		h-0.1v-3.7h4.4v3.7h-2.1v38.9h19l2.3,0v-2.1h4.5V44.7h-1.5l-1.9-2.1v-4.4h0.9V33l2.1-2.4h3.2l0.7,1.6v5.8h1.4v5.7l-1.1,0.9h-1.5
		v25.6h4.3v3.2c0.7,0.1,1.3,0.2,2,0.3v-1.2h1.9V39.7h1.1V0h0l0,0H266.8v97.8l7.9,0L276.5,98.2z"/>
	<path class="st1" d="M533.2,100.7l-76.8-0.5c-12.3-8.4-27.9-14.3-45-19c-7.9-1.7-15.7-3.3-23.5-4.7v-7.4h-3.1V51.3h0.2l0-0.9l0.9,0
		v-2.9h-2.2V35.1h-0.8v8.8h-2v3.9h0v3.5h1.9v17.8h-3l-1.9,3.5H376V39.7h-1V0h-0.9v39.7h-1.1v32.9h-1.9v1.2c-0.7-0.1-1.3-0.2-2-0.3
		v-3.2h-4.3V44.7h1.5l1.1-0.9v-5.7H366v-5.8l-0.7-1.6h-3.2l-2.1,2.4v5.1H359v4.4l1.9,2.1h1.5v25.6h-4.5v2.1l-2.3,0h-19V33.5h2.1
		v-3.7h-4.4v3.7h0.1v38.9h-18.1c-0.8-0.8-2.9-1.4-4.4-1.4c-1.6,0-2.3,0.6-2.5,1.4H306c0.1-0.1,0.1-0.2,0.1-0.4
		c0-1.2-2.8-2.1-4.9-2.1c-2.1,0-2.6,0.9-2.6,2.1c0,0.1,0,0.2,0,0.4h-2.8c-5.7,1.6-10.2,6.1-12.1,12.2c-0.9,5-4.1,10-7.2,13.5
		l-1.8-0.4l-7.9,0v86.7h266.5V100.7z"/>
	<polygon class="st1" points="374.1,0 374.1,0 374.1,0 	"/>
</g>
</svg>
