<?xml version="1.0" encoding="utf-8"?>
<!-- Generator: Adobe Illustrator 26.1.0, SVG Export Plug-In . SVG Version: 6.00 Build 0)  -->
<svg version="1.1"
	 id="svg2" xmlns:cc="http://creativecommons.org/ns#" xmlns:dc="http://purl.org/dc/elements/1.1/" xmlns:inkscape="http://www.inkscape.org/namespaces/inkscape" xmlns:rdf="http://www.w3.org/1999/02/22-rdf-syntax-ns#" xmlns:sodipodi="http://sodipodi.sourceforge.net/DTD/sodipodi-0.dtd" xmlns:svg="http://www.w3.org/2000/svg"
	 xmlns="http://www.w3.org/2000/svg" xmlns:xlink="http://www.w3.org/1999/xlink" x="0px" y="0px" viewBox="0 0 266.5 186.5"
	 style="enable-background:new 0 0 266.5 186.5;" xml:space="preserve">
<style type="text/css">
	.st0{fill:none;}
	.st1{fill:#333333;}
</style>
<g>
	<path class="st0" d="M90.5,184.5c-8.9,0.1-18.9-0.8-29-2.5c-0.1,0-0.2,0-0.3,0c-2.5-0.4-4.9-0.9-7.3-1.4c-0.1,0-0.2,0-0.3-0.1
		c-1.2-0.3-2.5-0.6-3.7-0.8c0,0,0,0,0,0c-1.2-0.3-2.4-0.6-3.6-0.9c-0.1,0-0.1,0-0.2,0c-1.2-0.3-2.4-0.6-3.5-1c0,0-0.1,0-0.1,0
		c-1.2-0.3-2.3-0.7-3.4-1.1c-0.1,0-0.1,0-0.2-0.1c-1.1-0.4-2.2-0.7-3.2-1.1c-0.1,0-0.3-0.1-0.4-0.1c-1-0.4-2-0.7-3-1.1
		c-0.2-0.1-0.3-0.1-0.5-0.2c-1-0.4-1.9-0.8-2.9-1.2c-0.2-0.1-0.3-0.1-0.5-0.2c-1-0.4-1.9-0.8-2.8-1.3c-0.1-0.1-0.3-0.1-0.4-0.2
		c-0.9-0.4-1.8-0.9-2.7-1.3c-0.1-0.1-0.3-0.1-0.4-0.2c-0.9-0.4-1.7-0.9-2.5-1.4c-0.1-0.1-0.3-0.2-0.4-0.2c-0.8-0.5-1.6-0.9-2.4-1.4
		c-0.1-0.1-0.3-0.2-0.4-0.2C5.6,159.6-0.9,151.1,0.1,141c0.9-4.3,2.4-8.2,4.6-11.9H4.6c0.1-0.1,0.1-0.1,0.2-0.2
		c10.8-18.2,36.7-29.1,70.8-31.4l0,0l190.8,0.2V0H0v186.5h266.5v-2.1H90.5z"/>
	<path class="st1" d="M75.6,97.5c-34.1,2.3-59.9,13.2-70.8,31.4c-0.1,0.1-0.1,0.1-0.2,0.2h0.1c-2.2,3.7-3.7,7.6-4.6,11.9
		c-1.1,10.1,5.5,18.6,16.1,25.3c0.1,0.1,0.3,0.2,0.4,0.2c0.8,0.5,1.6,1,2.4,1.4c0.1,0.1,0.3,0.2,0.4,0.2c0.8,0.5,1.7,0.9,2.5,1.4
		c0.1,0.1,0.3,0.1,0.4,0.2c0.9,0.5,1.8,0.9,2.7,1.3c0.1,0.1,0.3,0.1,0.4,0.2c0.9,0.4,1.9,0.8,2.8,1.3c0.2,0.1,0.3,0.1,0.5,0.2
		c0.9,0.4,1.9,0.8,2.9,1.2c0.2,0.1,0.3,0.1,0.5,0.2c1,0.4,2,0.8,3,1.1c0.1,0,0.3,0.1,0.4,0.1c1.1,0.4,2.1,0.7,3.2,1.1
		c0.1,0,0.1,0,0.2,0.1c1.1,0.4,2.3,0.7,3.4,1.1c0,0,0.1,0,0.1,0c1.2,0.3,2.4,0.7,3.5,1c0.1,0,0.1,0,0.2,0c1.2,0.3,2.4,0.6,3.6,0.9
		c0,0,0,0,0,0c1.2,0.3,2.4,0.6,3.7,0.8c0.1,0,0.2,0,0.3,0.1c2.4,0.5,4.9,1,7.3,1.4c0.1,0,0.2,0,0.3,0c10.1,1.7,20.1,2.6,29,2.5h176
		V97.8L75.6,97.5L75.6,97.5z"/>
</g>
</svg>
