<?xml version="1.0" encoding="utf-8"?>
<!-- Generator: Adobe Illustrator 26.1.0, SVG Export Plug-In . SVG Version: 6.00 Build 0)  -->
<svg version="1.1"
	 id="svg2" xmlns:cc="http://creativecommons.org/ns#" xmlns:dc="http://purl.org/dc/elements/1.1/" xmlns:inkscape="http://www.inkscape.org/namespaces/inkscape" xmlns:rdf="http://www.w3.org/1999/02/22-rdf-syntax-ns#" xmlns:sodipodi="http://sodipodi.sourceforge.net/DTD/sodipodi-0.dtd" xmlns:svg="http://www.w3.org/2000/svg"
	 xmlns="http://www.w3.org/2000/svg" xmlns:xlink="http://www.w3.org/1999/xlink" x="0px" y="0px" viewBox="0 0 800 186.5"
	 style="enable-background:new 0 0 800 186.5;" xml:space="preserve">
<style type="text/css">
	.st0{fill:none;}
	.st1{fill:#333333;}
</style>
<g>
	<path class="st0" d="M375,0v39.7h1v32.9h1.9l1.9-3.5h3V51.3h-1.9v-3.5h0v-3.9h2v-8.8h0.8v12.3h2.2v2.9l-0.9,0l0,0.9h-0.2v17.8h3.1
		v7.4c3.9,0.7,7.9,1.5,11.8,2.3V0h-25.5v0H375z"/>
	<path class="st0" d="M90.5,184.5c-8.9,0.1-18.9-0.8-29-2.5c-0.1,0-0.2,0-0.3,0c-2.5-0.4-4.9-0.9-7.3-1.4c-0.1,0-0.2,0-0.3-0.1
		c-1.2-0.3-2.5-0.6-3.7-0.8c0,0,0,0,0,0c-1.2-0.3-2.4-0.6-3.6-0.9c-0.1,0-0.1,0-0.2,0c-1.2-0.3-2.4-0.6-3.5-1c0,0-0.1,0-0.1,0
		c-1.2-0.3-2.3-0.7-3.4-1.1c-0.1,0-0.1,0-0.2-0.1c-1.1-0.4-2.2-0.7-3.2-1.1c-0.1,0-0.3-0.1-0.4-0.1c-1-0.4-2-0.7-3-1.1
		c-0.2-0.1-0.3-0.1-0.5-0.2c-1-0.4-1.9-0.8-2.9-1.2c-0.2-0.1-0.3-0.1-0.5-0.2c-1-0.4-1.9-0.8-2.8-1.3c-0.1-0.1-0.3-0.1-0.4-0.2
		c-0.9-0.4-1.8-0.9-2.7-1.3c-0.1-0.1-0.3-0.1-0.4-0.2c-0.9-0.4-1.7-0.9-2.5-1.4c-0.1-0.1-0.3-0.2-0.4-0.2c-0.8-0.5-1.6-0.9-2.4-1.4
		c-0.1-0.1-0.3-0.2-0.4-0.2C5.6,159.6-0.9,151.1,0.1,141c0.9-4.3,2.4-8.2,4.6-11.9H4.6c0.1-0.1,0.1-0.1,0.2-0.2
		c10.8-18.2,36.7-29.1,70.8-31.4l0,0l199,0.2l1.8,0.4c3.2-3.5,6.3-8.5,7.2-13.5c1.9-6.1,6.4-10.7,12.1-12.2h2.8c0-0.1,0-0.2,0-0.4
		c0-1.2,0.5-2.1,2.6-2.1c2.1,0,4.9,0.9,4.9,2.1c0,0.1,0,0.2-0.1,0.4h3.3c0.2-0.8,0.9-1.4,2.5-1.4c1.6,0,3.6,0.6,4.4,1.4h18.1V33.5
		h-0.1v-3.7h4.4v3.7h-2.1v38.9h19l2.3,0v-2.1h4.5V44.7h-1.5l-1.9-2.1v-4.4h0.9V33l2.1-2.4h3.2l0.7,1.6v5.8h1.4v5.7l-1.1,0.9h-1.5
		v25.6h4.3v3.2c0.7,0.1,1.3,0.2,2,0.3v-1.2h1.9V39.7h1.1V0h0l0,0H0v186.5h399.7v-2.1H90.5z"/>
	<polygon class="st1" points="374.1,0 374.1,0 374.1,0 	"/>
	<path class="st1" d="M387.9,69.1h-3.1V51.3h0.2l0-0.9l0.9,0v-2.9h-2.2V35.1h-0.8v8.8h-2v3.9h0v3.5h1.9v17.8h-3l-1.9,3.5H376V39.7
		h-1V0h-0.9v39.7h-1.1v32.9h-1.9v1.2c-0.7-0.1-1.3-0.2-2-0.3v-3.2h-4.3V44.7h1.5l1.1-0.9v-5.7H366v-5.8l-0.7-1.6h-3.2l-2.1,2.4v5.1
		H359v4.4l1.9,2.1h1.5v25.6h-4.5v2.1l-2.3,0h-19V33.5h2.1v-3.7h-4.4v3.7h0.1v38.9h-18.1c-0.8-0.8-2.9-1.4-4.4-1.4
		c-1.6,0-2.3,0.6-2.5,1.4H306c0.1-0.1,0.1-0.2,0.1-0.4c0-1.2-2.8-2.1-4.9-2.1c-2.1,0-2.6,0.9-2.6,2.1c0,0.1,0,0.2,0,0.4h-2.8
		c-5.7,1.6-10.2,6.1-12.1,12.2c-0.9,5-4.1,10-7.2,13.5l-1.8-0.4l-199-0.2l0,0c-34.1,2.3-59.9,13.2-70.8,31.4
		c-0.1,0.1-0.1,0.1-0.2,0.2h0.1c-2.2,3.7-3.7,7.6-4.6,11.9c-1.1,10.1,5.5,18.6,16.1,25.3c0.1,0.1,0.3,0.2,0.4,0.2
		c0.8,0.5,1.6,1,2.4,1.4c0.1,0.1,0.3,0.2,0.4,0.2c0.8,0.5,1.7,0.9,2.5,1.4c0.1,0.1,0.3,0.1,0.4,0.2c0.9,0.5,1.8,0.9,2.7,1.3
		c0.1,0.1,0.3,0.1,0.4,0.2c0.9,0.4,1.9,0.8,2.8,1.3c0.2,0.1,0.3,0.1,0.5,0.2c0.9,0.4,1.9,0.8,2.9,1.2c0.2,0.1,0.3,0.1,0.5,0.2
		c1,0.4,2,0.8,3,1.1c0.1,0,0.3,0.1,0.4,0.1c1.1,0.4,2.1,0.7,3.2,1.1c0.1,0,0.1,0,0.2,0.1c1.1,0.4,2.3,0.7,3.4,1.1c0,0,0.1,0,0.1,0
		c1.2,0.3,2.4,0.7,3.5,1c0.1,0,0.1,0,0.2,0c1.2,0.3,2.4,0.6,3.6,0.9c0,0,0,0,0,0c1.2,0.3,2.4,0.6,3.7,0.8c0.1,0,0.2,0,0.3,0.1
		c2.4,0.5,4.9,1,7.3,1.4c0.1,0,0.2,0,0.3,0c10.1,1.7,20.1,2.6,29,2.5h309.2V78.8c-3.9-0.8-7.9-1.6-11.8-2.3V69.1z"/>
</g>
</svg>
