<?xml version="1.0" encoding="utf-8"?>
<!-- Generator: Adobe Illustrator 26.1.0, SVG Export Plug-In . SVG Version: 6.00 Build 0)  -->
<svg version="1.1"
	 id="svg2" xmlns:cc="http://creativecommons.org/ns#" xmlns:dc="http://purl.org/dc/elements/1.1/" xmlns:inkscape="http://www.inkscape.org/namespaces/inkscape" xmlns:rdf="http://www.w3.org/1999/02/22-rdf-syntax-ns#" xmlns:sodipodi="http://sodipodi.sourceforge.net/DTD/sodipodi-0.dtd" xmlns:svg="http://www.w3.org/2000/svg"
	 xmlns="http://www.w3.org/2000/svg" xmlns:xlink="http://www.w3.org/1999/xlink" x="0px" y="0px" viewBox="0 0 800 186.5"
	 style="enable-background:new 0 0 800 186.5;" xml:space="preserve">
<style type="text/css">
	.st0{fill:#333333;}
</style>
<path class="st0" d="M374.1,0v39.7h-1.1v32.9h-1.9v1.2c-0.7-0.1-1.3-0.2-2-0.3v-3.2h-4.3V44.7h1.5l1.1-0.9v-5.7H366v-5.8l-0.7-1.6
	h-3.2l-2.1,2.4v5.1H359v4.4l1.9,2.1h1.5v25.6h-4.5v2.1l-2.3,0h-19V33.5h2.1v-3.7h-4.4v3.7h0.1v38.9h-18.1c-0.8-0.8-2.9-1.4-4.4-1.4
	c-1.6,0-2.3,0.6-2.5,1.4H306c0.1-0.1,0.1-0.2,0.1-0.4c0-1.2-2.8-2.1-4.9-2.1c-2.1,0-2.6,0.9-2.6,2.1c0,0.1,0,0.2,0,0.4h-2.8
	c-5.7,1.6-10.2,6.1-12.1,12.2c-0.9,5-4.1,10-7.2,13.5l-1.8-0.4l-199-0.2l0,0c-34.1,2.3-59.9,13.2-70.8,31.4
	c-0.1,0.1-0.1,0.1-0.2,0.2h0.1c-2.2,3.7-3.7,7.6-4.6,11.9c-1.1,10.1,5.5,18.6,16.1,25.3c0.1,0.1,0.3,0.2,0.4,0.2
	c0.8,0.5,1.6,1,2.4,1.4c0.1,0.1,0.3,0.2,0.4,0.2c0.8,0.5,1.7,0.9,2.5,1.4c0.1,0.1,0.3,0.1,0.4,0.2c0.9,0.5,1.8,0.9,2.7,1.3
	c0.1,0.1,0.3,0.1,0.4,0.2c0.9,0.4,1.9,0.8,2.8,1.3c0.2,0.1,0.3,0.1,0.5,0.2c0.9,0.4,1.9,0.8,2.9,1.2c0.2,0.1,0.3,0.1,0.5,0.2
	c1,0.4,2,0.8,3,1.1c0.1,0,0.3,0.1,0.4,0.1c1.1,0.4,2.1,0.7,3.2,1.1c0.1,0,0.1,0,0.2,0.1c1.1,0.4,2.3,0.7,3.4,1.1c0,0,0.1,0,0.1,0
	c1.2,0.3,2.4,0.7,3.5,1c0.1,0,0.1,0,0.2,0c1.2,0.3,2.4,0.6,3.6,0.9c0,0,0,0,0,0c1.2,0.3,2.4,0.6,3.7,0.8c0.1,0,0.2,0,0.3,0.1
	c2.4,0.5,4.9,1,7.3,1.4c0.1,0,0.2,0,0.3,0c10.1,1.7,20.1,2.6,29,2.5h478.2c0,0,0,0,0,0h0c53.2-5.7,106.6-14.9,159.1-25
	c7.2,5.1,11.1,18.4,15.9,27.1h20l-0.1-29.5l3.3-3.1v-2.2c0.2,0,0.4-0.1,0.6-0.1l12.6,0.1v0h0l0-1h4v-1.3h0.4
	c-0.3,1.1-0.5,2.5-0.5,3.8c0,3.5,1.1,6.3,2.4,6.3c0.2,0,0.4-0.1,0.5-0.2c0.3,3.2,1.3,5.4,2.3,5.4c1.4,0,2.5-3.4,2.5-7.7
	c0-3-0.6-5.7-1.4-6.9h4.4c2.3-0.7,4.3-2,5.3-3.9c-1.1-1.4-3.2-3.1-5.4-3.9h-4.2c0.8-1.4,1.3-3.9,1.3-6.7c0-4.2-1.1-7.7-2.5-7.7
	c-0.9,0-1.8,1.7-2.2,4.3c-0.2-0.2-0.5-0.3-0.7-0.3c-1.3,0-2.4,2.8-2.4,6.3c0,1.6,0.2,3.2,0.7,4.4h-0.5v-0.6H780v-0.9l-8,0
	c-0.4-0.2-0.8-0.3-1.1-0.5l-8.4-11.1V97.3c8.3-1.2,16-3.3,22.3-6.5c1.1-0.5,1-0.7-0.1-1.4c-7.8-5.5-39.4-11.6-59-10.2l0,0
	c-7.2,1-14.1,2.4-14.9,10.5c0.3,6.1,4.6,8.6,9.7,9.6c3.8,0,7.7,0,11.7-0.1c7.9,8.8,0.6,19.1-5.8,25.8v0.8c-1.4-0.4-2.7-0.8-4.1-1.1
	l2.3,0h-2.3C674,111.7,619.4,104.3,567,100.9l-110.5-0.8c-12.3-8.4-27.9-14.3-45-19c-7.9-1.7-15.7-3.3-23.5-4.7v-7.4h-3.1V51.3h0.2
	l0-0.9l0.9,0v-2.9h-2.2V35.1h-0.8v8.8h-2v3.9h0v3.5h1.9v17.8h-3l-1.9,3.5H376V39.7h-1V0L374.1,0L374.1,0z"/>
</svg>
